<svg
  xmlns="http://www.w3.org/2000/svg"
  viewBox="0 0 120 24"
  stroke-width="2"
  stroke="#4c14e9"
  fill="none"
  stroke-linecap="round"
  stroke-linejoin="round"
  font-family="monospace"
>
  <path stroke="none" d="M0 0h120v24H0z" fill="none"></path>
  <path d="M20 11a8.1 8.1 0 0 0-15.5-2m-.5-4v4h4"></path>
  <path d="M4 13a8.1 8.1 0 0 0 15.5 2m.5 4v-4h-4"></path>
  <path d="M12 7v6"></path>
  <path d="M12 13l-3 2"></path>
  <!-- WIP text from https://danmarshall.github.io/google-font-to-svg-path/ using Chau Philomene One font -->
  <g id="textpath" fill-rule="evenodd" stroke-width="0" fill="#4c14e9" transform="translate(26,4)">
  <path d="M 21.744 14.784 L 20.384 14.8 Q 19.586 14.8 19.301 14.697 A 0.385 0.385 0 0 1 19.192 14.64 A 0.599 0.599 0 0 1 19.074 14.517 A 0.444 0.444 0 0 1 18.992 14.256 Q 18.992 14.032 19.072 13.76 L 19.632 12.064 Q 18.864 11.728 18.528 10.96 A 3.668 3.668 0 0 1 18.298 10.214 Q 18.225 9.853 18.202 9.433 A 7.233 7.233 0 0 1 18.192 9.04 Q 18.192 7.888 18.336 7.296 A 1.946 1.946 0 0 1 18.517 6.82 A 1.53 1.53 0 0 1 18.888 6.368 Q 19.296 6.032 19.856 5.928 Q 20.362 5.834 21.207 5.825 A 17.21 17.21 0 0 1 21.392 5.824 L 24.88 5.824 Q 25.136 5.824 25.136 6.464 A 0.6 0.6 0 0 1 25.121 6.604 Q 25.076 6.793 24.893 6.844 A 0.436 0.436 0 0 1 24.88 6.848 L 24.832 6.864 L 24.144 6.992 A 2.853 2.853 0 0 1 24.469 7.792 Q 24.592 8.285 24.592 8.896 A 7.518 7.518 0 0 1 24.539 9.825 Q 24.414 10.825 23.995 11.4 A 1.983 1.983 0 0 1 23.88 11.544 A 2.032 2.032 0 0 1 23.126 12.067 Q 22.489 12.334 21.522 12.351 A 7.55 7.55 0 0 1 21.392 12.352 L 21.04 12.352 L 20.896 13.104 A 59.572 59.572 0 0 1 21.627 13.121 Q 22.604 13.15 23.067 13.206 A 3.357 3.357 0 0 1 23.248 13.232 Q 23.652 13.303 23.87 13.392 A 0.883 0.883 0 0 1 24 13.456 A 1.152 1.152 0 0 1 24.199 13.613 Q 24.28 13.692 24.357 13.792 A 2.026 2.026 0 0 1 24.392 13.84 Q 24.576 14.096 24.616 14.432 Q 24.655 14.761 24.656 15.288 A 14.635 14.635 0 0 1 24.656 15.312 A 3.777 3.777 0 0 1 24.592 16.035 Q 24.438 16.82 23.92 17.248 A 2.04 2.04 0 0 1 23.33 17.575 Q 22.747 17.793 21.842 17.842 A 10.179 10.179 0 0 1 21.296 17.856 Q 20.705 17.856 19.911 17.74 A 18.283 18.283 0 0 1 19.088 17.6 A 0.192 0.192 0 0 1 18.964 17.504 Q 18.869 17.351 18.852 16.965 A 4.101 4.101 0 0 1 18.848 16.784 A 4.019 4.019 0 0 1 18.855 16.543 Q 18.876 16.195 18.964 16.077 A 0.132 0.132 0 0 1 19.072 16.016 L 19.088 16.016 L 19.104 16.016 Q 20.405 16.161 21.229 16.175 A 10.094 10.094 0 0 0 21.4 16.176 Q 22.256 16.176 22.464 16.048 A 0.338 0.338 0 0 0 22.586 15.909 Q 22.649 15.786 22.666 15.578 A 2.005 2.005 0 0 0 22.672 15.416 A 2.138 2.138 0 0 0 22.666 15.242 Q 22.642 14.956 22.534 14.873 A 0.162 0.162 0 0 0 22.488 14.848 A 0.719 0.719 0 0 0 22.381 14.822 Q 22.201 14.789 21.856 14.785 A 8.805 8.805 0 0 0 21.744 14.784 Z M 54.112 14.784 L 52.752 14.8 Q 51.954 14.8 51.669 14.697 A 0.385 0.385 0 0 1 51.56 14.64 A 0.599 0.599 0 0 1 51.442 14.517 A 0.444 0.444 0 0 1 51.36 14.256 Q 51.36 14.032 51.44 13.76 L 52 12.064 Q 51.232 11.728 50.896 10.96 A 3.668 3.668 0 0 1 50.666 10.214 Q 50.593 9.853 50.57 9.433 A 7.233 7.233 0 0 1 50.56 9.04 Q 50.56 7.888 50.704 7.296 A 1.946 1.946 0 0 1 50.885 6.82 A 1.53 1.53 0 0 1 51.256 6.368 Q 51.664 6.032 52.224 5.928 Q 52.73 5.834 53.575 5.825 A 17.21 17.21 0 0 1 53.76 5.824 L 57.248 5.824 Q 57.504 5.824 57.504 6.464 A 0.6 0.6 0 0 1 57.489 6.604 Q 57.444 6.793 57.261 6.844 A 0.436 0.436 0 0 1 57.248 6.848 L 57.2 6.864 L 56.512 6.992 A 2.853 2.853 0 0 1 56.837 7.792 Q 56.96 8.285 56.96 8.896 A 7.518 7.518 0 0 1 56.907 9.825 Q 56.782 10.825 56.363 11.4 A 1.983 1.983 0 0 1 56.248 11.544 A 2.032 2.032 0 0 1 55.494 12.067 Q 54.857 12.334 53.89 12.351 A 7.55 7.55 0 0 1 53.76 12.352 L 53.408 12.352 L 53.264 13.104 A 59.572 59.572 0 0 1 53.995 13.121 Q 54.972 13.15 55.435 13.206 A 3.357 3.357 0 0 1 55.616 13.232 Q 56.02 13.303 56.238 13.392 A 0.883 0.883 0 0 1 56.368 13.456 A 1.152 1.152 0 0 1 56.567 13.613 Q 56.648 13.692 56.725 13.792 A 2.026 2.026 0 0 1 56.76 13.84 Q 56.944 14.096 56.984 14.432 Q 57.023 14.761 57.024 15.288 A 14.635 14.635 0 0 1 57.024 15.312 A 3.777 3.777 0 0 1 56.96 16.035 Q 56.806 16.82 56.288 17.248 A 2.04 2.04 0 0 1 55.698 17.575 Q 55.115 17.793 54.21 17.842 A 10.179 10.179 0 0 1 53.664 17.856 Q 53.073 17.856 52.279 17.74 A 18.283 18.283 0 0 1 51.456 17.6 A 0.192 0.192 0 0 1 51.332 17.504 Q 51.237 17.351 51.22 16.965 A 4.101 4.101 0 0 1 51.216 16.784 A 4.019 4.019 0 0 1 51.223 16.543 Q 51.244 16.195 51.332 16.077 A 0.132 0.132 0 0 1 51.44 16.016 L 51.456 16.016 L 51.472 16.016 Q 52.773 16.161 53.597 16.175 A 10.094 10.094 0 0 0 53.768 16.176 Q 54.624 16.176 54.832 16.048 A 0.338 0.338 0 0 0 54.954 15.909 Q 55.017 15.786 55.034 15.578 A 2.005 2.005 0 0 0 55.04 15.416 A 2.138 2.138 0 0 0 55.034 15.242 Q 55.01 14.956 54.902 14.873 A 0.162 0.162 0 0 0 54.856 14.848 A 0.719 0.719 0 0 0 54.749 14.822 Q 54.569 14.789 54.224 14.785 A 8.805 8.805 0 0 0 54.112 14.784 Z M 16.992 9.152 L 16.992 14.016 Q 16.992 14.112 16.976 14.144 Q 16.908 14.253 16.51 14.269 A 3.683 3.683 0 0 1 16.36 14.272 A 7.74 7.74 0 0 1 15.273 14.193 A 8.519 8.519 0 0 1 15.264 14.192 Q 14.704 14.112 14.704 14.016 L 14.688 9.152 Q 14.688 7.683 14.516 7.418 A 0.104 0.104 0 0 0 14.432 7.36 Q 13.945 7.36 13.182 7.772 A 7.416 7.416 0 0 0 12.896 7.936 L 12.896 14.016 Q 12.896 14.112 12.88 14.144 Q 12.812 14.253 12.414 14.269 A 3.683 3.683 0 0 1 12.264 14.272 A 7.813 7.813 0 0 1 11.302 14.211 A 8.682 8.682 0 0 1 11.16 14.192 A 5.448 5.448 0 0 1 10.996 14.167 Q 10.592 14.097 10.592 14.016 L 10.592 6.08 Q 10.592 5.824 11.232 5.824 Q 12.041 5.824 12.294 5.989 A 0.269 0.269 0 0 1 12.384 6.08 A 0.096 0.096 0 0 0 12.385 6.091 Q 12.387 6.112 12.4 6.112 L 12.704 6.72 A 11.252 11.252 0 0 1 13.296 6.349 Q 14.186 5.833 14.687 5.824 A 0.98 0.98 0 0 1 14.704 5.824 A 3.006 3.006 0 0 1 15.367 5.892 Q 15.798 5.99 16.109 6.226 A 1.688 1.688 0 0 1 16.44 6.56 Q 16.903 7.177 16.978 8.582 A 10.751 10.751 0 0 1 16.992 9.152 Z M 49.36 9.152 L 49.36 14.016 Q 49.36 14.112 49.344 14.144 Q 49.276 14.253 48.878 14.269 A 3.683 3.683 0 0 1 48.728 14.272 A 7.74 7.74 0 0 1 47.641 14.193 A 8.519 8.519 0 0 1 47.632 14.192 Q 47.072 14.112 47.072 14.016 L 47.056 9.152 Q 47.056 7.683 46.884 7.418 A 0.104 0.104 0 0 0 46.8 7.36 Q 46.313 7.36 45.55 7.772 A 7.416 7.416 0 0 0 45.264 7.936 L 45.264 14.016 Q 45.264 14.112 45.248 14.144 Q 45.18 14.253 44.782 14.269 A 3.683 3.683 0 0 1 44.632 14.272 A 7.813 7.813 0 0 1 43.67 14.211 A 8.682 8.682 0 0 1 43.528 14.192 A 5.448 5.448 0 0 1 43.364 14.167 Q 42.96 14.097 42.96 14.016 L 42.96 6.08 Q 42.96 5.824 43.6 5.824 Q 44.409 5.824 44.662 5.989 A 0.269 0.269 0 0 1 44.752 6.08 A 0.096 0.096 0 0 0 44.753 6.091 Q 44.755 6.112 44.768 6.112 L 45.072 6.72 A 11.252 11.252 0 0 1 45.664 6.349 Q 46.554 5.833 47.055 5.824 A 0.98 0.98 0 0 1 47.072 5.824 A 3.006 3.006 0 0 1 47.735 5.892 Q 48.166 5.99 48.477 6.226 A 1.688 1.688 0 0 1 48.808 6.56 Q 49.271 7.177 49.346 8.582 A 10.751 10.751 0 0 1 49.36 9.152 Z M 67.664 16.352 L 67.408 16.096 L 71.424 0 L 73.184 0 L 73.44 0.256 L 69.648 16.352 L 67.664 16.352 Z M 0 13.76 L 0 2.32 Q 0 1.968 0.168 1.848 Q 0.296 1.756 0.606 1.735 A 3.021 3.021 0 0 1 0.816 1.728 A 3.458 3.458 0 0 1 1.206 1.748 Q 1.594 1.792 1.788 1.934 A 0.452 0.452 0 0 1 1.984 2.304 L 2.224 7.104 L 2.24 12.08 L 5.344 12.08 A 1.572 1.572 0 0 1 5.625 12.103 Q 6.108 12.191 6.127 12.621 A 0.808 0.808 0 0 1 6.128 12.656 Q 6.128 13.696 5.824 13.904 A 0.586 0.586 0 0 1 5.63 13.991 Q 5.55 14.011 5.457 14.015 A 1.108 1.108 0 0 1 5.408 14.016 L 0.256 14.016 L 0 13.76 Z M 74.211 6.674 A 26.1 26.1 0 0 0 74.176 8.08 Q 74.176 11.584 75.08 12.928 A 2.668 2.668 0 0 0 76.114 13.827 Q 76.589 14.067 77.206 14.177 A 6.6 6.6 0 0 0 78.368 14.272 A 7.101 7.101 0 0 0 79.204 14.225 Q 80.919 14.022 81.648 12.928 A 3.599 3.599 0 0 0 82.016 12.188 Q 82.544 10.771 82.544 8.08 A 31.179 31.179 0 0 0 82.54 7.592 Q 82.518 6.142 82.357 5.117 A 7.752 7.752 0 0 0 82.152 4.168 A 5.21 5.21 0 0 0 82.022 3.777 Q 81.867 3.367 81.659 3.047 A 2.502 2.502 0 0 0 80.888 2.272 A 3.043 3.043 0 0 0 80.138 1.944 Q 79.76 1.832 79.3 1.779 A 8.018 8.018 0 0 0 78.368 1.728 A 9.894 9.894 0 0 0 78.336 1.728 Q 77.327 1.731 76.611 1.941 A 3.055 3.055 0 0 0 75.848 2.272 A 2.339 2.339 0 0 0 75.389 2.649 Q 74.862 3.204 74.576 4.176 A 6.234 6.234 0 0 0 74.5 4.461 Q 74.283 5.352 74.211 6.674 Z M 63.024 12.08 L 63.6 12.08 L 63.6 3.904 L 63.12 3.904 A 0.861 0.861 0 0 1 62.965 3.883 Q 62.88 3.863 62.816 3.825 A 0.361 0.361 0 0 1 62.688 3.696 Q 62.603 3.526 62.583 3.144 A 4.952 4.952 0 0 1 62.576 2.88 A 2.273 2.273 0 0 1 62.595 2.575 Q 62.64 2.24 62.798 2.095 A 0.434 0.434 0 0 1 63.104 1.984 L 65.936 1.984 A 1.48 1.48 0 0 1 66.184 2.003 Q 66.627 2.079 66.64 2.458 A 0.676 0.676 0 0 1 66.64 2.48 Q 66.64 3.904 66.08 3.904 L 65.68 3.904 L 65.84 7.104 L 65.856 12.08 L 66.336 12.08 A 0.922 0.922 0 0 1 66.553 12.109 Q 66.896 12.204 66.896 12.592 A 4.044 4.044 0 0 1 66.859 13.076 Q 66.723 14.016 66.112 14.016 L 63.088 14.016 Q 62.887 14.005 62.771 13.908 A 0.378 0.378 0 0 1 62.688 13.808 A 0.722 0.722 0 0 1 62.637 13.664 Q 62.576 13.425 62.576 12.976 Q 62.576 12.444 62.734 12.228 A 0.341 0.341 0 0 1 63.024 12.08 Z M 30.816 10.448 L 28.352 10.448 A 23.08 23.08 0 0 0 28.371 11.093 Q 28.425 12.285 28.599 12.545 A 0.248 0.248 0 0 0 28.624 12.576 Q 28.762 12.699 29.063 12.704 A 1.551 1.551 0 0 0 29.088 12.704 A 33.47 33.47 0 0 0 29.998 12.693 Q 31.364 12.655 31.952 12.496 Q 31.977 12.484 31.992 12.481 A 0.045 0.045 0 0 1 32 12.48 A 0.137 0.137 0 0 1 32.026 12.475 Q 32.118 12.467 32.18 12.6 A 0.514 0.514 0 0 1 32.184 12.608 A 0.476 0.476 0 0 1 32.212 12.699 Q 32.256 12.898 32.256 13.36 Q 32.256 13.728 32.157 13.892 A 0.254 0.254 0 0 1 32 14.016 A 2.2 2.2 0 0 1 31.636 14.116 Q 30.983 14.246 29.654 14.268 A 34.434 34.434 0 0 1 29.088 14.272 A 4.944 4.944 0 0 1 28.252 14.207 Q 27.2 14.026 26.712 13.344 A 2.626 2.626 0 0 1 26.376 12.663 Q 26.048 11.704 26.048 10.016 A 15.952 15.952 0 0 1 26.072 9.109 Q 26.123 8.213 26.283 7.613 A 3.754 3.754 0 0 1 26.352 7.384 Q 26.656 6.48 27.272 6.152 A 2.28 2.28 0 0 1 27.758 5.967 Q 28.251 5.836 28.958 5.825 A 8.436 8.436 0 0 1 29.088 5.824 A 6.943 6.943 0 0 1 29.717 5.851 Q 30.461 5.919 30.904 6.16 A 1.628 1.628 0 0 1 31.464 6.677 Q 31.614 6.894 31.726 7.177 A 3.428 3.428 0 0 1 31.808 7.408 Q 32.068 8.232 32.093 9.682 A 18.329 18.329 0 0 1 32.096 10 L 32.096 10.192 Q 32.096 10.271 31.842 10.339 A 2.413 2.413 0 0 1 31.72 10.368 Q 31.428 10.43 31.044 10.444 A 6.323 6.323 0 0 1 30.816 10.448 Z M 34.992 6.112 L 35.312 6.72 A 16.794 16.794 0 0 1 35.773 6.416 Q 36.704 5.824 37.048 5.824 A 1.94 1.94 0 0 1 37.517 5.879 A 1.65 1.65 0 0 1 37.816 5.984 A 3 3 0 0 1 38.013 6.084 Q 38.194 6.185 38.302 6.287 A 0.825 0.825 0 0 1 38.32 6.304 L 38.464 6.448 A 26.938 26.938 0 0 1 38.378 6.805 Q 38.2 7.52 38.096 7.728 A 0.653 0.653 0 0 1 38.022 7.846 Q 37.911 7.984 37.752 7.984 A 0.705 0.705 0 0 1 37.597 7.965 Q 37.45 7.932 37.262 7.84 A 2.674 2.674 0 0 1 37.2 7.808 A 1.872 1.872 0 0 0 36.967 7.704 Q 36.766 7.632 36.592 7.632 Q 36.367 7.632 35.771 7.97 A 10.515 10.515 0 0 0 35.504 8.128 L 35.504 14.016 Q 35.504 14.112 35.472 14.144 A 0.138 0.138 0 0 1 35.41 14.201 Q 35.306 14.255 35.049 14.268 A 3.43 3.43 0 0 1 34.88 14.272 A 6.145 6.145 0 0 1 34.252 14.241 A 5.046 5.046 0 0 1 33.896 14.192 A 3.493 3.493 0 0 1 33.753 14.164 Q 33.472 14.102 33.443 14.032 A 0.042 0.042 0 0 1 33.44 14.016 L 33.44 6.08 Q 33.44 5.849 34.026 5.826 A 3.483 3.483 0 0 1 34.16 5.824 Q 34.788 5.824 34.953 6.019 A 0.248 0.248 0 0 1 34.992 6.08 L 34.992 6.112 Z M 76.848 5.096 Q 76.752 5.696 76.736 6.312 Q 76.721 6.879 76.72 8.172 A 252.836 252.836 0 0 0 76.72 8.4 A 37.482 37.482 0 0 0 76.733 9.416 Q 76.744 9.826 76.765 10.188 A 17.367 17.367 0 0 0 76.816 10.864 A 12.21 12.21 0 0 0 76.861 11.265 Q 76.947 11.924 77.072 12.168 A 0.783 0.783 0 0 0 77.168 12.315 Q 77.239 12.4 77.326 12.441 A 0.411 0.411 0 0 0 77.504 12.48 A 10.861 10.861 0 0 0 78.073 12.466 Q 78.901 12.423 79.26 12.241 A 0.817 0.817 0 0 0 79.344 12.192 A 0.784 0.784 0 0 0 79.463 12.088 Q 79.517 12.03 79.571 11.955 A 1.859 1.859 0 0 0 79.656 11.824 Q 79.808 11.568 79.872 11.296 Q 79.925 11.07 79.967 10.667 A 12.702 12.702 0 0 0 79.984 10.496 Q 80.048 9.808 80.048 8.024 Q 80.048 6.24 79.96 5.208 Q 79.874 4.203 79.713 3.82 A 1.049 1.049 0 0 0 79.704 3.8 Q 79.618 3.608 79.506 3.514 A 0.368 0.368 0 0 0 79.264 3.424 A 12.121 12.121 0 0 0 78.888 3.429 Q 78.502 3.441 78.232 3.48 A 1.596 1.596 0 0 0 77.678 3.662 A 1.512 1.512 0 0 0 77.536 3.752 A 1.771 1.771 0 0 0 77.301 3.95 Q 77.169 4.083 77.088 4.232 Q 76.944 4.496 76.848 5.096 Z M 6.992 14.016 L 6.992 6.08 A 0.194 0.194 0 0 1 7.104 5.904 Q 7.201 5.85 7.38 5.832 A 1.959 1.959 0 0 1 7.568 5.824 A 7.41 7.41 0 0 1 8.33 5.862 A 6.33 6.33 0 0 1 8.656 5.904 A 4.353 4.353 0 0 1 8.817 5.932 Q 9.168 6.001 9.168 6.08 L 9.168 14.016 Q 9.168 14.112 9.152 14.144 Q 9.072 14.272 8.544 14.272 Q 8.016 14.272 7.504 14.192 A 4.353 4.353 0 0 1 7.343 14.164 Q 6.992 14.096 6.992 14.016 Z M 39.36 14.016 L 39.36 6.08 A 0.194 0.194 0 0 1 39.472 5.904 Q 39.569 5.85 39.748 5.832 A 1.959 1.959 0 0 1 39.936 5.824 A 7.41 7.41 0 0 1 40.698 5.862 A 6.33 6.33 0 0 1 41.024 5.904 A 4.353 4.353 0 0 1 41.185 5.932 Q 41.536 6.001 41.536 6.08 L 41.536 14.016 Q 41.536 14.112 41.52 14.144 Q 41.44 14.272 40.912 14.272 Q 40.384 14.272 39.872 14.192 A 4.353 4.353 0 0 1 39.711 14.164 Q 39.36 14.096 39.36 14.016 Z M 21.792 7.36 A 7.779 7.779 0 0 0 21.404 7.369 Q 20.858 7.396 20.634 7.508 A 0.376 0.376 0 0 0 20.536 7.576 Q 20.32 7.792 20.32 8.776 Q 20.32 9.76 20.408 10.2 A 3.978 3.978 0 0 0 20.441 10.352 Q 20.497 10.582 20.555 10.671 A 0.165 0.165 0 0 0 20.592 10.712 A 0.219 0.219 0 0 0 20.652 10.742 Q 20.755 10.777 20.972 10.783 A 3.387 3.387 0 0 0 21.064 10.784 Q 21.432 10.784 21.662 10.761 A 2.895 2.895 0 0 0 21.672 10.76 Q 21.904 10.736 22.096 10.528 A 0.794 0.794 0 0 0 22.28 10.183 A 1.101 1.101 0 0 0 22.312 9.984 Q 22.335 9.661 22.336 8.981 A 41.779 41.779 0 0 0 22.336 8.928 A 9.459 9.459 0 0 0 22.329 8.551 Q 22.311 8.107 22.248 7.848 A 2.753 2.753 0 0 0 22.212 7.714 Q 22.153 7.518 22.092 7.449 A 0.145 0.145 0 0 0 22.064 7.424 A 0.333 0.333 0 0 0 21.974 7.383 Q 21.931 7.37 21.879 7.364 A 0.808 0.808 0 0 0 21.792 7.36 Z M 54.16 7.36 A 7.779 7.779 0 0 0 53.772 7.369 Q 53.226 7.396 53.002 7.508 A 0.376 0.376 0 0 0 52.904 7.576 Q 52.688 7.792 52.688 8.776 Q 52.688 9.76 52.776 10.2 A 3.978 3.978 0 0 0 52.809 10.352 Q 52.865 10.582 52.923 10.671 A 0.165 0.165 0 0 0 52.96 10.712 A 0.219 0.219 0 0 0 53.02 10.742 Q 53.123 10.777 53.34 10.783 A 3.387 3.387 0 0 0 53.432 10.784 Q 53.8 10.784 54.03 10.761 A 2.895 2.895 0 0 0 54.04 10.76 Q 54.272 10.736 54.464 10.528 A 0.794 0.794 0 0 0 54.648 10.183 A 1.101 1.101 0 0 0 54.68 9.984 Q 54.703 9.661 54.704 8.981 A 41.779 41.779 0 0 0 54.704 8.928 A 9.459 9.459 0 0 0 54.697 8.551 Q 54.679 8.107 54.616 7.848 A 2.753 2.753 0 0 0 54.58 7.714 Q 54.521 7.518 54.46 7.449 A 0.145 0.145 0 0 0 54.432 7.424 A 0.333 0.333 0 0 0 54.342 7.383 Q 54.299 7.37 54.247 7.364 A 0.808 0.808 0 0 0 54.16 7.36 Z M 7.528 3.975 A 1.658 1.658 0 0 0 7.984 4.032 A 1.697 1.697 0 0 0 8.411 3.983 Q 8.932 3.847 9.079 3.336 A 1.658 1.658 0 0 0 9.136 2.88 A 1.697 1.697 0 0 0 9.087 2.453 Q 8.951 1.932 8.44 1.785 A 1.658 1.658 0 0 0 7.984 1.728 A 1.697 1.697 0 0 0 7.557 1.777 Q 7.036 1.913 6.889 2.424 A 1.658 1.658 0 0 0 6.832 2.88 A 1.697 1.697 0 0 0 6.881 3.307 Q 7.017 3.828 7.528 3.975 Z M 39.896 3.975 A 1.658 1.658 0 0 0 40.352 4.032 A 1.697 1.697 0 0 0 40.779 3.983 Q 41.3 3.847 41.447 3.336 A 1.658 1.658 0 0 0 41.504 2.88 A 1.697 1.697 0 0 0 41.455 2.453 Q 41.319 1.932 40.808 1.785 A 1.658 1.658 0 0 0 40.352 1.728 A 1.697 1.697 0 0 0 39.925 1.777 Q 39.404 1.913 39.257 2.424 A 1.658 1.658 0 0 0 39.2 2.88 A 1.697 1.697 0 0 0 39.249 3.307 Q 39.385 3.828 39.896 3.975 Z M 28.352 7.92 L 28.352 9.168 L 29.968 9.168 A 17.787 17.787 0 0 0 29.942 8.633 Q 29.857 7.312 29.6 7.312 Q 29.189 7.312 28.888 7.403 A 1.482 1.482 0 0 0 28.704 7.472 A 0.874 0.874 0 0 0 28.546 7.563 Q 28.461 7.626 28.413 7.702 A 0.403 0.403 0 0 0 28.352 7.92 Z"/>
  </g>
</svg>
